<?xml version="1.0" encoding="utf-8"?>
<!-- Generator: Adobe Illustrator 16.0.0, SVG Export Plug-In . SVG Version: 6.00 Build 0)  -->
<!DOCTYPE svg PUBLIC "-//W3C//DTD SVG 1.1//EN" "http://www.w3.org/Graphics/SVG/1.1/DTD/svg11.dtd">
<svg version="1.1" xmlns="http://www.w3.org/2000/svg" xmlns:xlink="http://www.w3.org/1999/xlink" x="0px" y="0px"
	 width="2613.54px" height="731.34px" viewBox="0 0 2613.54 731.34" enable-background="new 0 0 2613.54 731.34"
	 xml:space="preserve">
<g id="Calque_4">
	<rect x="583" y="15.674" width="1324" height="629"/>
</g>
<g id="Calque_1" display="none">
	
		<image display="inline" overflow="visible" width="922" height="258" xlink:href="E5AAA56A.jpg"  transform="matrix(1 0 0 1 846 236.3398)">
	</image>
</g>
<g id="Calque_3">
	<rect x="1392.001" y="273.173" fill="#D31F43" width="291.834" height="154.833"/>
</g>
<g id="Calque_2">
	<rect x="1019" y="304.67" fill="none" width="694" height="120"/>
	<text transform="matrix(1 0 0 1 1019 389.6348)" fill="#FFFFFF" font-family="'HelveticaNeueLTStd-MdCn'" font-size="119">access code</text>
	<line fill="none" stroke="#FFFFFF" stroke-miterlimit="10" x1="1682.362" y1="428.197" x2="1016.22" y2="428.197"/>
	<rect x="1019.22" y="450.805" fill="none" width="709.334" height="99.07"/>
	
		<text transform="matrix(1.05 0 0 1 1019.2202 491.502)" fill="#FFFFFF" font-family="'HelveticaNeueLTStd-ThCn'" font-size="57" letter-spacing="88.571">school</text>
	<g id="Calque_6">
		<rect x="915.668" y="298.005" fill="none" width="154.667" height="86.333"/>
		<text transform="matrix(1 0 0 1 915.6685 380.8281)" fill="#E51A54" font-family="'HelveticaNeueLTStd-MdCn'" font-size="116">&lt;</text>
		<rect x="1697" y="298.006" fill="none" width="164" height="89.332"/>
		<text transform="matrix(1 0 0 1 1697 382.9707)" fill="#D31F43" font-family="'HelveticaNeueLTStd-MdCn'" font-size="119">&gt;</text>
	</g>
</g>
</svg>
